<svg id="ptg-logo" style="background-color:#ffffff00" xmlns="http://www.w3.org/2000/svg" xml:space="preserve" height="25px" width="190px" version="1.1" y="0px" x="0px" xmlns:xlink="http://www.w3.org/1999/xlink" viewBox="0 0 562 76"> <g id="ptg-logo-1"> <path d="m22.969 12.094h-22.235l0.0004 62.906h14.047v-17.547h8.375c9.282 0 16.203-1.797 20.735-5.391 4.531-3.593 6.797-9.281 6.797-17.062 0-7.766-2.219-13.531-6.626-17.281-4.406-3.75-11.437-5.625-21.093-5.625zm1.265 33.203h-9.453v-21.141h8.016c4.609 0 8.015 0.766 10.203 2.297s3.297 4.109 3.297 7.735c0 3.624-0.844 6.39-2.531 8.281-1.688 1.89-4.86 2.828-9.532 2.828z" fill="#fff"></path> <path d="m99.984 57.5c-3.593 3.938-8.015 5.891-13.265 5.891s-9.688-1.953-13.281-5.891c-3.594-3.938-5.391-8.703-5.391-14.312 0-5.61 1.797-10.391 5.391-14.36 3.593-3.953 8.031-5.937 13.281-5.937s9.672 1.984 13.265 5.937c3.596 3.969 5.406 8.75 5.406 14.36 0 5.609-1.81 10.374-5.406 14.312zm19.716-14.359c0-9.235-3.18-16.953-9.54-23.172-6.36-6.203-14.191-9.313-23.488-9.313-9.313 0-17.141 3.11-23.5 9.313-6.36 6.219-9.531 13.937-9.531 23.172 0 9.25 3.171 16.968 9.531 23.171 6.359 6.219 14.187 9.313 23.5 9.313 9.297 0 17.128-3.094 23.488-9.313 6.36-6.203 9.54-13.921 9.54-23.171z" fill="#fff"></path> <path d="m171.52 17.047c-4.18-3.297-11.14-4.953-20.93-4.953h-23.86v62.906h14.05v-20.062h9.72l13.95 20.062h17.28l-15.93-22.5c7.97-2.938 11.97-9.438 11.97-19.531 0-7.313-2.1-12.625-6.25-15.922zm-20.47 25.734h-10.27v-18.625h10.53c4.5 0 7.64 0.641 9.44 1.891 1.8 1.265 2.7 3.594 2.7 6.969 0 3.39-0.87 5.859-2.61 7.422-1.75 1.562-5.01 2.343-9.79 2.343z" fill="#fff"></path> <path d="m231.7 24.234v-12.14h-49.68v12.14h17.82v50.766h14.04v-50.766h17.82z" fill="#fff"></path> <path d="m250.88 46.828v-34.734h-14.04v35.187c0 9.063 2.54 16.063 7.6 20.969 5.06 4.922 11.53 7.375 19.39 7.375s14.31-2.437 19.36-7.328c5.03-4.891 7.56-11.891 7.56-21.016v-35.187h-14.05v34.734c0 5.047-1.15 9.031-3.47 11.938-2.31 2.906-5.43 4.359-9.39 4.359s-7.11-1.453-9.45-4.359c-2.34-2.907-3.51-6.891-3.51-11.938z" fill="#fff"></path> <path d="m342.09 60.234c-3.25 1.875-7.29 2.797-12.15 2.797s-9.05-1.781-12.55-5.359c-3.51-3.563-5.27-8.328-5.27-14.266 0-5.937 1.83-10.718 5.49-14.344 3.66-3.624 8.17-5.453 13.51-5.453 2.76 0 5.32 0.469 7.69 1.407 2.38 0.937 4.97 2.625 7.78 5.078l7.3-10.532c-6.66-5.937-14.5-8.906-23.53-8.906s-16.75 3.125-23.14 9.36c-6.39 6.25-9.58 14.031-9.58 23.359s3.13 17.047 9.41 23.172c6.26 6.125 14.01 9.172 23.26 9.172 11.03 0 19.67-3.469 25.92-10.438v-22.328h-14.14v17.281z" fill="#fff"></path> <path d="m424.5 75l-27.19-62.906h-13.58l-27.18 62.906h14.93l5.86-13.594h26.36l5.86 13.594h14.94zm-26.09-25.922h-15.75l7.9-18.266 7.85 18.266z" fill="#fff"></path> <path d="m468.09 75v-12.516h-26.81v-50.39h-14.05v62.906h40.86z" fill="#fff"></path> <path d="m473.73 75h14.05v-40.427l-14.05-11.24v51.667z" fill="#f2b246"></path> <path d="m541.98 57.5c-3.59 3.938-8.01 5.891-13.26 5.891s-9.69-1.953-13.28-5.891c-3.6-3.938-5.39-8.703-5.39-14.312 0-5.61 1.79-10.391 5.39-14.36 3.59-3.953 8.03-5.937 13.28-5.937s9.67 1.984 13.26 5.937c3.6 3.969 5.41 8.75 5.41 14.36 0 5.609-1.81 10.374-5.41 14.312zm19.72-14.359c0-9.235-3.18-16.953-9.54-23.172-6.36-6.203-14.19-9.313-23.49-9.313-9.31 0-17.14 3.11-23.5 9.313-6.36 6.219-9.53 13.937-9.53 23.172 0 9.25 3.17 16.968 9.53 23.171 6.36 6.219 14.19 9.313 23.5 9.313 9.3 0 17.13-3.094 23.49-9.313 6.36-6.203 9.54-13.921 9.54-23.171z" fill="#f2b246"></path> <g id="icon_42783"> <path id="Pin" fill="#f3b030" d="m475.08 17.678c-1.9-1.874-3.08-4.625-3.08-7.484 0-2.8596 1.18-5.2868 3.08-7.161 1.9-1.8733 4.52-3.033 7.42-3.033s5.52 1.1597 7.42 3.033c1.9 1.8742 3.08 4.3014 3.08 7.161 0 2.859-1.18 5.61-3.08 7.484l-7.42 7.322-7.42-7.322z"></path> </g> </g> </svg>