<svg xmlns="http://www.w3.org/2000/svg" width="144" height="28" fill="none" xmlns:v="https://vecta.io/nano"><path d="M22.706 27.239h6.687V3h-6.687v24.239z" fill="url(#A)"/><path opacity=".75" d="M11.354 27.239h6.686V10.522h-6.686V27.24z" fill="url(#B)"/><path opacity=".5" d="M0 27.239h6.687V18.88H0v8.358z" fill="url(#C)"/><path d="M45.92 26.767l-5.024-8.878h-1.28v8.878H34V3.26h9.59c1.838 0 3.392.321 4.662.964s2.222 1.53 2.857 2.66c.635 1.108.953 2.383.953 3.824 0 1.707-.471 3.159-1.412 4.356-.92 1.197-2.266 2.017-4.04 2.46l5.517 9.244h-6.206zM39.616 14h3.481c1.117 0 1.938-.244 2.463-.732.526-.51.789-1.252.789-2.228 0-.93-.274-1.662-.821-2.194-.526-.532-1.336-.798-2.43-.798h-3.482V14zM61.84 7.98c1.4 0 2.605.322 3.612.965a5.778 5.778 0 0 1 2.233 2.626V8.213h5.582v18.554h-5.582V23.41a5.777 5.777 0 0 1-2.233 2.627c-1.007.643-2.212.964-3.613.964-1.51 0-2.868-.377-4.072-1.13-1.182-.776-2.123-1.885-2.824-3.326-.679-1.44-1.018-3.125-1.018-5.054 0-1.95.34-3.635 1.018-5.054.7-1.44 1.642-2.538 2.824-3.292 1.204-.776 2.562-1.164 4.072-1.164zm1.805 4.988c-1.204 0-2.178.399-2.922 1.197-.723.798-1.084 1.906-1.084 3.325s.361 2.527 1.084 3.325c.744.798 1.718 1.197 2.922 1.197 1.183 0 2.146-.41 2.89-1.23.767-.82 1.15-1.918 1.15-3.292 0-1.396-.383-2.494-1.15-3.292-.744-.82-1.707-1.23-2.89-1.23zM85.41 7.98c2.364 0 4.345.665 5.943 1.995 1.598 1.308 2.605 3.115 3.021 5.42H88.43c-.175-.798-.536-1.418-1.083-1.862s-1.237-.665-2.07-.665c-.984 0-1.794.4-2.43 1.197-.634.776-.952 1.918-.952 3.425s.318 2.66.953 3.458a3 3 0 0 0 2.43 1.164c.832 0 1.521-.222 2.069-.665s.908-1.064 1.083-1.862h5.944c-.416 2.305-1.423 4.123-3.021 5.453C89.755 26.346 87.773 27 85.409 27c-1.795 0-3.393-.377-4.794-1.13-1.38-.776-2.463-1.885-3.251-3.326s-1.183-3.125-1.183-5.054c0-1.95.383-3.635 1.15-5.054.788-1.44 1.882-2.538 3.284-3.292 1.4-.776 2.999-1.164 4.794-1.164zm11.37-4.987c0-.865.306-1.574.92-2.128C98.311.288 99.121 0 100.13 0s1.817.288 2.43.865c.613.554.919 1.263.919 2.128 0 .842-.306 1.551-.919 2.128-.613.554-1.423.831-2.43.831s-1.817-.277-2.43-.831a2.806 2.806 0 0 1-.92-2.128zm6.141 5.22v18.554h-5.616V8.213h5.616zm22.103 0v18.554h-5.649V23.41a6.1 6.1 0 0 1-2.364 2.594c-1.029.642-2.233.964-3.612.964-2.102 0-3.777-.71-5.025-2.128-1.226-1.419-1.839-3.37-1.839-5.852V8.213h5.583v10.075c0 1.264.317 2.25.952 2.96.657.687 1.533 1.03 2.627 1.03 1.139 0 2.036-.365 2.693-1.097s.985-1.773.985-3.126V8.213h5.649zm10.536-.233c2.321 0 4.171.588 5.55 1.763 1.401 1.175 2.277 2.726 2.627 4.655h-5.254c-.153-.754-.504-1.341-1.051-1.762-.525-.444-1.193-.666-2.003-.666-.635 0-1.117.144-1.445.433-.328.266-.493.654-.493 1.163 0 .577.296 1.01.887 1.297.613.289 1.565.577 2.857.865 1.401.332 2.551.676 3.448 1.03.898.333 1.675.887 2.332 1.663s.985 1.818.985 3.126c0 1.064-.285 2.006-.854 2.826s-1.39 1.463-2.463 1.929-2.342.698-3.809.698c-2.474 0-4.455-.554-5.944-1.663s-2.397-2.693-2.726-4.755h5.419c.087.799.416 1.408.985 1.83.591.42 1.346.631 2.266.631.635 0 1.116-.144 1.445-.432.328-.31.492-.71.492-1.197 0-.643-.306-1.098-.919-1.364-.591-.288-1.565-.587-2.923-.897-1.357-.288-2.474-.599-3.349-.931a5.594 5.594 0 0 1-2.266-1.596c-.635-.754-.953-1.774-.953-3.06 0-1.662.624-3.003 1.872-4.023 1.248-1.042 3.01-1.563 5.287-1.563z" fill="#003"/><defs><linearGradient id="A" x1="1403.68" y1="-1659.54" x2="1172.18" y2="-1814.67" gradientUnits="userSpaceOnUse"><stop stop-color="#f03"/><stop offset="1" stop-color="#e7914a"/></linearGradient><linearGradient id="B" x1="1392.33" y1="-1136.06" x2="1219.78" y2="-1303.72" gradientUnits="userSpaceOnUse"><stop stop-color="#f03"/><stop offset="1" stop-color="#e7914a"/></linearGradient><linearGradient id="C" x1="1380.98" y1="-554.409" x2="1310.75" y2="-690.89" gradientUnits="userSpaceOnUse"><stop stop-color="#f03"/><stop offset="1" stop-color="#e7914a"/></linearGradient></defs></svg>